<?xml version="1.0" encoding="UTF-8" standalone="yes" ?>
<svg xmlns="http://www.w3.org/2000/svg" height="452" width="452">
  <script type="text/ecmascript">
    <![CDATA[
      var shown = 1;
      function click() {
        var seq = document.getElementById("seq");
        if (shown==1) {
          seq.setAttribute("style", "visibility: hidden");
          shown = 0;
        } else {
          seq.setAttribute("style", "visibility: visible");
          shown = 1;
        }
      }
    ]]>
  </script>
  <style type="text/css">
    <![CDATA[
      .nucleotide {
        font-family: SansSerif;
      }
      .backbone {
        stroke: grey;
        fill:   none;
        stroke-width: 1.5;
      }
      .basepairs {
        stroke: red;
        fill:   none;
        stroke-width: 2.5;
      }
    ]]>
  </style>

  <rect style="stroke: white; fill: white" height="452" x="0" y="0" width="452" onclick="click(evt)" />
  <g transform="scale(3.616000,3.616000) translate(-48.500000,-41.000000)">
    <polyline class="backbone" id="outline" points="
      78.543,59.546
      83.130,78.377
      80.070,83.533
      81.282,90.771
      87.795,96.548
      84.065,111.077
      72.507,120.638
      56.449,126.076
      57.229,143.012
      73.718,146.951
      82.069,132.196
      93.626,122.634
      103.840,121.641
      110.489,115.322
      125.223,118.133
      139.958,120.943
      154.383,129.850
      166.936,118.454
      159.460,103.238
      142.768,106.209
      128.034,103.398
      113.300,100.588
      101.742,91.026
      98.012,76.497
    " />
    <g id="pairs">
      <line class="basepairs" id="2,24" x1="83.12990" y1="78.37743" x2="98.01162" y2="76.49742" />
      <line class="basepairs" id="5,23" x1="87.79532" y1="96.54804" x2="101.74197" y2="91.02618" />
      <line class="basepairs" id="6,12" x1="84.06497" y1="111.07679" x2="93.62634" y2="122.63449" />
      <line class="basepairs" id="7,11" x1="72.50728" y1="120.63815" x2="82.06863" y2="132.19585" />
      <line class="basepairs" id="14,22" x1="110.48895" y1="115.32184" x2="113.29967" y2="100.58753" />
      <line class="basepairs" id="15,21" x1="125.22326" y1="118.13256" x2="128.03398" y2="103.39825" />
      <line class="basepairs" id="16,20" x1="139.95757" y1="120.94328" x2="142.76828" y2="106.20897" />
    </g>
    <g transform="translate(-4.6, 4)" id="seq">
      <text class="nucleotide" x="78.543" y="59.546">G</text>
      <text class="nucleotide" x="83.130" y="78.377">C</text>
      <text class="nucleotide" x="80.070" y="83.533">A</text>
      <text class="nucleotide" x="81.282" y="90.771">A</text>
      <text class="nucleotide" x="87.795" y="96.548">C</text>
      <text class="nucleotide" x="84.065" y="111.077">U</text>
      <text class="nucleotide" x="72.507" y="120.638">G</text>
      <text class="nucleotide" x="56.449" y="126.076">G</text>
      <text class="nucleotide" x="57.229" y="143.012">C</text>
      <text class="nucleotide" x="73.718" y="146.951">A</text>
      <text class="nucleotide" x="82.069" y="132.196">C</text>
      <text class="nucleotide" x="93.626" y="122.634">A</text>
      <text class="nucleotide" x="103.840" y="121.641">A</text>
      <text class="nucleotide" x="110.489" y="115.322">A</text>
      <text class="nucleotide" x="125.223" y="118.133">G</text>
      <text class="nucleotide" x="139.958" y="120.943">G</text>
      <text class="nucleotide" x="154.383" y="129.850">C</text>
      <text class="nucleotide" x="166.936" y="118.454">C</text>
      <text class="nucleotide" x="159.460" y="103.238">U</text>
      <text class="nucleotide" x="142.768" y="106.209">C</text>
      <text class="nucleotide" x="128.034" y="103.398">C</text>
      <text class="nucleotide" x="113.300" y="100.588">U</text>
      <text class="nucleotide" x="101.742" y="91.026">G</text>
      <text class="nucleotide" x="98.012" y="76.497">G</text>
    </g>
  </g>
<script type="text/ecmascript">
<![CDATA[
  let sequence = "GCAACUGGCACAAAGGCCUCCUGG";
  let structure = ".(..(((...)).(((...)))))";
  const basepairs = [
    { i: 2, j: 24, type: "cWW" },
    { i: 5, j: 23, type: "cWW" },
    { i: 6, j: 12, type: "cWW" },
    { i: 7, j: 11, type: "cWW" },
    { i: 14, j: 22, type: "cWW" },
    { i: 15, j: 21, type: "cWW" },
    { i: 16, j: 20, type: "cWW" }];
  const coords = [
    { x: 78.543, y: 59.546 },
    { x: 83.130, y: 78.377 },
    { x: 80.070, y: 83.533 },
    { x: 81.282, y: 90.771 },
    { x: 87.795, y: 96.548 },
    { x: 84.065, y: 111.077 },
    { x: 72.507, y: 120.638 },
    { x: 56.449, y: 126.076 },
    { x: 57.229, y: 143.012 },
    { x: 73.718, y: 146.951 },
    { x: 82.069, y: 132.196 },
    { x: 93.626, y: 122.634 },
    { x: 103.840, y: 121.641 },
    { x: 110.489, y: 115.322 },
    { x: 125.223, y: 118.133 },
    { x: 139.958, y: 120.943 },
    { x: 154.383, y: 129.850 },
    { x: 166.936, y: 118.454 },
    { x: 159.460, y: 103.238 },
    { x: 142.768, y: 106.209 },
    { x: 128.034, y: 103.398 },
    { x: 113.300, y: 100.588 },
    { x: 101.742, y: 91.026 },
    { x: 98.012, y: 76.497 }];
]]>
</script>
</svg>
